<svg width="17" height="17" viewBox="0 0 17 17" xmlns="http://www.w3.org/2000/svg">
    <path d="M12.952 8.905c-1.61 0-3.03.946-3.676 2.353a8.09 8.09 0 0 1-3.533-3.534 4.045 4.045 0 0 0 2.352-3.676A4.052 4.052 0 0 0 4.048 0 4.052 4.052 0 0 0 0 4.048C0 11.189 5.81 17 12.952 17A4.052 4.052 0 0 0 17 12.952a4.052 4.052 0 0 0-4.048-4.047zm0 6.476c-6.25 0-11.333-5.084-11.333-11.333a2.432 2.432 0 0 1 2.429-2.429 2.432 2.432 0 0 1 2.428 2.429 2.42 2.42 0 0 1-1.982 2.384l-.958.176.346.91a9.703 9.703 0 0 0 5.6 5.6l.91.347.176-.958a2.421 2.421 0 0 1 2.384-1.983 2.432 2.432 0 0 1 2.429 2.428 2.432 2.432 0 0 1-2.429 2.429z" fill="#70BC73" fill-rule="evenodd"/>
</svg>
