<svg width="32" height="32" viewBox="0 0 32 32" xmlns="http://www.w3.org/2000/svg">
    <g fill="none" fill-rule="evenodd">
        <path fill="none" d="M0 0h32v32H0z"/>
        <path d="M17.124 7c.416 0 .772.296.85.705l.272 1.452c.347.114.683.254 1.005.417l1.22-.835a.864.864 0 0 1 1.005.022l.093.08 1.59 1.59a.864.864 0 0 1 .164.992l-.062.107-.835 1.22c.163.321.303.657.417 1.004l1.452.273a.864.864 0 0 1 .705.85v2.247a.864.864 0 0 1-.705.85l-1.452.272a7.155 7.155 0 0 1-.417 1.005l.835 1.22a.864.864 0 0 1-.102 1.098l-1.59 1.59a.864.864 0 0 1-1.099.102l-1.22-.835a7.155 7.155 0 0 1-1.004.417l-.273 1.452a.864.864 0 0 1-.737.698l-.112.007h-2.248a.864.864 0 0 1-.821-.596l-.028-.109-.273-1.452a7.155 7.155 0 0 1-1.005-.417l-1.22.835a.864.864 0 0 1-1.098-.102l-1.59-1.59a.864.864 0 0 1-.102-1.099l.835-1.22a7.155 7.155 0 0 1-.417-1.004l-1.452-.273a.864.864 0 0 1-.698-.737L7 17.124v-2.248c0-.378.245-.707.596-.821l.109-.028 1.452-.273c.114-.347.254-.683.417-1.005l-.835-1.22a.864.864 0 0 1 .022-1.005l.08-.093 1.59-1.59a.864.864 0 0 1 .992-.164l.107.062 1.22.835a7.155 7.155 0 0 1 1.004-.417l.273-1.452a.864.864 0 0 1 .85-.705h2.247zM16 13.545a2.455 2.455 0 1 0 0 4.91 2.455 2.455 0 0 0 0-4.91z" stroke="#FFF" stroke-width="1.08" stroke-linecap="round"/>
    </g>
</svg>
