<svg width="20" height="20" viewBox="0 0 20 20" xmlns="http://www.w3.org/2000/svg">
    <path d="M12.857 14.103a.834.834 0 0 0 .954 1.367A6.675 6.675 0 0 0 16.667 10 6.674 6.674 0 0 0 10 3.333 6.674 6.674 0 0 0 3.333 10a6.676 6.676 0 0 0 2.857 5.472.832.832 0 0 0 1.16-.207.834.834 0 0 0-.206-1.16A5.007 5.007 0 0 1 5 10c0-2.758 2.243-5 5-5s5 2.242 5 5c0 1.633-.8 3.168-2.143 4.103zM10 6.667A3.337 3.337 0 0 0 6.667 10a3.33 3.33 0 0 0 2.5 3.215v5.952c0 .458.375.833.833.833a.836.836 0 0 0 .833-.833v-5.952a3.33 3.33 0 0 0 2.5-3.215A3.337 3.337 0 0 0 10 6.667zm0 5c-.92 0-1.667-.748-1.667-1.667 0-.92.748-1.667 1.667-1.667.92 0 1.667.748 1.667 1.667 0 .92-.748 1.667-1.667 1.667zM10 0C4.486 0 0 4.486 0 10a9.945 9.945 0 0 0 6.363 9.32.835.835 0 0 0 .607-1.553 8.286 8.286 0 0 1-5.303-7.767c0-4.595 3.738-8.333 8.333-8.333 4.595 0 8.333 3.738 8.333 8.333a8.282 8.282 0 0 1-5.307 7.766.832.832 0 0 0-.473 1.079c.167.43.65.642 1.078.474A9.939 9.939 0 0 0 20 10c0-5.514-4.486-10-10-10z" fill="#0089FF" fill-rule="evenodd"/>
</svg>
